# xmcd CD database file
#
# Track frame offsets:
#	150
#	17573
#	51790
#
# Disc length: 1126 seconds
#
# Revision: 0
# Processed by: cddbd v1.5PL3 Copyright (c) Steve Scherf et al.
# Submitted via: CDex 1.51
#
DISCID=1a046403
DTITLE=MSRW commissioner - ランナー／唄っておくれ
DYEAR=1900
DGENRE=J-Pop
TTITLE0=ランナー
TTITLE1=唄っておくれ
TTITLE2=DATA
EXTD=
EXTT0=
EXTT1=
EXTT2=
PLAYORDER=
